<svg width="369" height="120" viewBox="0 0 369 120" fill="none" xmlns="http://www.w3.org/2000/svg">
<rect y="4" width="111.795" height="111.795" rx="4.79121" fill="black"/>
<path d="M80.8518 68.2821C80.8518 69.747 80.2699 71.1518 79.2341 72.1876C78.1983 73.2234 76.7934 73.8053 75.3286 73.8053H42.1894L31.1429 84.8517V40.6661C31.1429 39.2012 31.7249 37.7964 32.7607 36.7606C33.7965 35.7248 35.2013 35.1429 36.6661 35.1429H75.3286C76.7934 35.1429 78.1983 35.7248 79.2341 36.7606C80.2699 37.7964 80.8518 39.2012 80.8518 40.6661V68.2821Z" stroke="white" stroke-width="5.5232" stroke-linecap="round" stroke-linejoin="round"/>
<path d="M64.8635 66.2796V51.4218" stroke="white" stroke-width="2.97155" stroke-linecap="round" stroke-linejoin="round"/>
<path d="M55.9489 66.2796V42.5072" stroke="white" stroke-width="2.97155" stroke-linecap="round" stroke-linejoin="round"/>
<path d="M47.0343 66.2795V57.3649" stroke="white" stroke-width="2.97155" stroke-linecap="round" stroke-linejoin="round"/>
<path d="M131.895 20H148.095C153.562 20 157.662 21.4667 160.395 24.4C163.128 27.3333 164.495 31.6333 164.495 37.3V44.2C164.495 49.8667 163.128 54.1667 160.395 57.1C157.662 60.0333 153.562 61.5 148.095 61.5H142.895V90H131.895V20ZM148.095 51.5C149.895 51.5 151.228 51 152.095 50C153.028 49 153.495 47.3 153.495 44.9V36.6C153.495 34.2 153.028 32.5 152.095 31.5C151.228 30.5 149.895 30 148.095 30H142.895V51.5H148.095ZM186.369 91C180.969 91 176.836 89.4667 173.969 86.4C171.102 83.3333 169.669 79 169.669 73.4V36.6C169.669 31 171.102 26.6667 173.969 23.6C176.836 20.5333 180.969 19 186.369 19C191.769 19 195.902 20.5333 198.769 23.6C201.636 26.6667 203.069 31 203.069 36.6V73.4C203.069 79 201.636 83.3333 198.769 86.4C195.902 89.4667 191.769 91 186.369 91ZM186.369 81C190.169 81 192.069 78.7 192.069 74.1V35.9C192.069 31.3 190.169 29 186.369 29C182.569 29 180.669 31.3 180.669 35.9V74.1C180.669 78.7 182.569 81 186.369 81ZM210.508 20H221.508V80H239.608V90H210.508V20ZM244.883 20H255.883V80H273.983V90H244.883V20ZM279.258 20H290.258V90H279.258V20ZM298.496 20H327.596V30H309.496V49.5H323.696V59.5H309.496V90H298.496V20ZM342.971 60.2L329.671 20H341.371L348.871 45.7H349.071L356.571 20H367.271L353.971 60.2V90H342.971V60.2Z" fill="black"/>
</svg>
